# xmcd
#
# Track frame offsets:
#	150
#	12123
#	27110
#	41215
#	57625
#	72433
#	88385
#	108458
#	125665
#	143600
#	156598
#	175550
#	191985
#	209805
#	224953
#	239883
#
# Disc length: 3467 seconds
#
# Revision: 3
# Processed by: cddbd v1.5PL3 Copyright (c) Steve Scherf et al.
# Submitted via: audiograbber 1.81.02
#
DISCID=0c0d8910
DTITLE=Sergio Reis - O Melhor de Sergio Reis
DYEAR=1989
DGENRE=Sertanejo
TTITLE0=Procissao
TTITLE1=Calix Bento
TTITLE2=Rei do Gado
TTITLE3=Tocador de Boi
TTITLE4=Trem do Pantanal
TTITLE5=Boiadeiro Errante
TTITLE6=Chico Mulato
TTITLE7=Filho Adotivo
TTITLE8=Berrante de Ouro
TTITLE9=Saudade de Minha Terra
TTITLE10=Magoa de Boiadeiro
TTITLE11=Chico Mineiro
TTITLE12=Serafim e seus Filhos
TTITLE13=O Menino da Porteira
TTITLE14=Panela Velha
TTITLE15=Pinga ni mim
EXTD=kiroiva@hotmail.com
EXTT0=
EXTT1=
EXTT2=
EXTT3=
EXTT4=
EXTT5=
EXTT6=
EXTT7=
EXTT8=
EXTT9=
EXTT10=
EXTT11=
EXTT12=
EXTT13=
EXTT14=
EXTT15=
PLAYORDER=
